<?xml version="1.0" encoding="UTF-8"?>
<!-- Generator: Adobe Illustrator 15.0.0, SVG Export Plug-In . SVG Version: 6.00 Build 0)  -->
<!DOCTYPE svg PUBLIC "-//W3C//DTD SVG 1.1//EN" "http://www.w3.org/Graphics/SVG/1.1/DTD/svg11.dtd" [
	<!ENTITY st0 "fill:#AAA295;">
	<!ENTITY st1 "fill:#EBE662;">
	<!ENTITY st2 "fill:#F8C05A;">
	<!ENTITY st3 "fill:#FFFFFF;">
	<!ENTITY st4 "fill:none;">
	<!ENTITY st5 "fill:#CAD400;">
	<!ENTITY st6 "fill:#008BCB;">
	<!ENTITY st7 "fill:#00A68B;">
]>
<svg version="1.1" id="Ebene_1" xmlns="http://www.w3.org/2000/svg" xmlns:xlink="http://www.w3.org/1999/xlink" x="0px" y="0px" width="283.465px" height="141.732px" viewBox="0 0 283.465 141.732" style="" xml:space="preserve">
<g>
	<path style="fill: rgb(170, 162, 149);" d="M175.44,119.074c-0.12-1.252-0.465-2.334-1.03-3.254c-0.573-0.924-1.35-1.662-2.336-2.205   c-0.982-0.542-2.137-0.82-3.46-0.82h-11.899l-1.596,5.164h7.158c0.643,0,1.217,0.129,1.714,0.4   c0.487,0.265,0.887,0.628,1.178,1.093c0.299,0.458,0.474,1.004,0.529,1.631c0.054,0.634-0.029,1.296-0.235,1.999l-1.594,5.159   c-0.208,0.7-0.536,1.362-0.973,1.993c-0.439,0.63-0.947,1.176-1.52,1.635c-0.563,0.461-1.188,0.827-1.861,1.095   c-0.678,0.262-1.338,0.393-1.979,0.393h-9.531l7.888-25.681H141.62c0.649,0,1.22,0.135,1.712,0.398   c0.492,0.266,0.883,0.625,1.165,1.073c0.288,0.445,0.47,0.968,0.546,1.572c0.08,0.599,0.016,1.237-0.189,1.913l-7.941,25.886   h24.123c1.322,0,2.639-0.269,3.949-0.81c1.309-0.553,2.539-1.283,3.691-2.205c1.155-0.926,2.175-2.008,3.06-3.254   c0.88-1.242,1.222-2.584,1.665-4.009l1.592-5.159C175.409,121.652,175.553,120.316,175.44,119.074"/>
	<path style="fill: rgb(170, 162, 149);" d="M282.629,119.105c-0.111-1.244-0.459-2.332-1.025-3.25c-0.574-0.922-1.351-1.652-2.339-2.203   c-0.979-0.543-2.134-0.818-3.457-0.818h-28.587c0.65,0,1.226,0.137,1.732,0.403c0.507,0.266,0.9,0.631,1.191,1.108   c0.279,0.474,0.453,1.034,0.496,1.655c0.053,0.634-0.022,1.29-0.23,1.989l-6.296,20.528h9.53l6.301-20.56h9.521   c0.652,0,1.221,0.131,1.713,0.4c0.488,0.267,0.885,0.628,1.186,1.092c0.296,0.459,0.474,1.005,0.522,1.634   c0.058,0.634-0.023,1.292-0.231,1.995l-4.743,15.438h9.528l4.748-15.411C282.602,121.681,282.75,120.346,282.629,119.105"/>
	<path style="fill: rgb(170, 162, 149);" d="M96.237,121.083c0.44-0.63,0.948-1.173,1.518-1.631c0.566-0.463,1.185-0.826,1.844-1.093   c0.66-0.27,1.319-0.4,1.971-0.4h19.05l1.6-5.125H98.379c-1.325,0-2.647,0.274-3.968,0.818c-1.323,0.546-2.554,1.277-3.695,2.193   c-1.139,0.926-2.155,1.999-3.038,3.243c-0.88,1.239-1.94,3.991-1.94,3.991l-1.558,5.159h23.764   c-0.213,0.702-0.536,1.366-0.979,1.998c-0.436,0.629-0.941,1.171-1.51,1.632c-0.572,0.461-1.195,0.829-1.87,1.097   c-0.673,0.263-1.334,0.393-1.982,0.393H82.551l-1.559,5.159h23.8c1.323,0,2.638-0.271,3.949-0.811   c1.31-0.551,2.542-1.281,3.692-2.203c1.151-0.926,2.169-2.006,3.051-3.252c0.883-1.244,1.544-2.586,1.982-4.013l1.599-5.159H95.225   C95.458,122.379,95.797,121.719,96.237,121.083"/>
	<path style="fill: rgb(170, 162, 149);" d="M57.892,132.964c-0.487-0.268-0.879-0.634-1.161-1.095c-0.29-0.459-0.451-1.005-0.507-1.635   c-0.05-0.631,0.022-1.293,0.237-1.993l1.591-5.159c0.207-0.703,0.529-1.365,0.976-1.999c0.438-0.627,0.944-1.173,1.51-1.631   c0.57-0.465,1.187-0.828,1.851-1.093c0.666-0.271,1.315-0.4,1.964-0.4h4.787c0.647,0,1.219,0.129,1.729,0.4   c0.504,0.265,0.9,0.628,1.185,1.093c0.292,0.458,0.451,1.004,0.506,1.631c0.053,0.634-0.027,1.296-0.234,1.999H60.422l-1.591,5.159   h21.426l1.595-5.159c0.416-1.424,0.568-2.755,0.448-3.995c-0.117-1.242-0.458-2.315-1.031-3.239   c-0.572-0.918-1.347-1.651-2.336-2.195c-0.986-0.543-2.132-0.818-3.459-0.818H61.203c-1.323,0-2.647,0.275-3.971,0.818   c-1.323,0.544-2.555,1.277-3.711,2.195c-1.149,0.924-2.168,1.997-3.051,3.239c-0.884,1.24-1.533,2.571-1.952,3.995l-1.588,5.159   c-0.44,1.425-0.604,2.767-0.491,4.009c0.124,1.246,0.469,2.328,1.052,3.254c0.588,0.922,1.37,1.652,2.357,2.205   c0.984,0.541,2.139,0.81,3.459,0.81h23.817l1.581-5.162H59.649C58.969,133.356,58.386,133.226,57.892,132.964"/>
	<path style="fill: rgb(170, 162, 149);" d="M130.676,131.869c-0.286-0.457-0.463-1.003-0.532-1.637c-0.061-0.629,0.021-1.297,0.26-1.991l3.074-10.224   h5.345c0.229-0.693,1.164-3.277,1.698-5.099h-5.449l1.569-5.329h-9.523l-1.573,5.329h-0.041l-1.56,5.099l-3.072,10.224   c-0.438,1.425-0.602,2.767-0.485,4.004c0.112,1.251,0.466,2.333,1.048,3.251c0.579,0.928,1.366,1.662,2.354,2.207   c0.982,0.544,2.135,0.814,3.462,0.814h6.807l1.59-5.159c-0.677,0-3.321-0.133-3.813-0.398   C131.347,132.696,130.958,132.33,130.676,131.869"/>
	<path style="fill: rgb(170, 162, 149);" d="M246.494,119.116c-0.112-1.246-0.457-2.339-1.021-3.253c-0.574-0.93-1.358-1.66-2.339-2.207   c-0.983-0.547-2.144-0.822-3.46-0.822h-14.275l1.599-5.158l-14.319,0.041c0.652,0,1.229,0.135,1.734,0.398   c0.503,0.262,0.901,0.627,1.188,1.09c0.285,0.464,0.464,1.01,0.523,1.639c0.063,0.631-0.02,1.295-0.252,1.99l-7.857,25.685h9.526   l6.267-20.52h9.529c0.641,0,1.217,0.135,1.711,0.4c0.494,0.269,0.889,0.632,1.184,1.089c0.297,0.463,0.472,1.011,0.527,1.639   c0.047,0.627-0.029,1.297-0.23,1.997l-4.746,15.395h9.527l4.701-15.395C246.454,121.691,246.612,120.361,246.494,119.116"/>
	<path style="fill: rgb(170, 162, 149);" d="M198.268,130.144c-0.439,0.63-0.947,1.175-1.52,1.635c-0.561,0.459-1.182,0.826-1.84,1.089   c-0.665,0.27-1.321,0.4-1.974,0.4h-4.78c-0.648,0-1.226-0.131-1.73-0.4c-0.506-0.263-0.899-0.63-1.182-1.089   c-0.291-0.46-0.457-1.005-0.506-1.635c-0.047-0.567-0.067-0.728,0.084-1.344c0.514-2.292,2.121-2.893,5.695-3.12h9.691   l-0.967,2.467C199.03,128.848,198.708,129.51,198.268,130.144 M210.885,119.893c0.004-0.31-0.005-0.617-0.036-0.914   c-0.114-1.244-0.465-2.328-1.047-3.256c-0.587-0.918-1.37-1.656-2.356-2.201c-0.982-0.544-2.138-0.814-3.465-0.814h-22.094   l-1.576,5.161h17.434c0.674,0,1.257,0.131,1.754,0.395c1.482,0.793,1.324,2.122,1.391,2.299h-12.174   c-2.563,0-9.363,0.931-12.157,5.304c-0.618,0.977-0.894,1.633-1.117,2.281c-0.26,0.732-0.569,2.752-0.448,3.99   c0.115,1.242,0.453,2.318,1.025,3.242c0.578,0.916,1.354,1.651,2.341,2.197c0.981,0.54,2.135,0.816,3.455,0.816   c0,0,10.162,0.293,11.657,0c1.416-0.287,3.131-1.549,3.131-1.549l-0.473,1.536h9.525l4.75-15.415   c0.286-0.986,0.432-1.93,0.465-2.826l0.016-0.229V119.893z"/>
	<path style="fill: rgb(170, 162, 149);" d="M17.081,133.404h-3.573c-0.649,0-1.216-0.135-1.707-0.405c-0.492-0.262-0.894-0.629-1.187-1.091   c-0.304-0.461-0.475-1.005-0.525-1.634c-0.055-0.632,0.021-1.294,0.231-1.995l4.742-15.445H5.534l-4.744,15.42   c-0.417,1.425-0.562,2.758-0.44,4.002c0.111,1.242,0.455,2.328,1.027,3.248c0.565,0.922,1.347,1.652,2.333,2.203   c0.985,0.54,2.135,0.811,3.454,0.811h32.813"/>
	<path style="fill: rgb(170, 162, 149);" d="M16.851,132.256c0.117,1.24,0.46,2.325,1.022,3.248c0.573,0.922,1.353,1.652,2.34,2.203   c0.982,0.54,2.138,0.811,3.456,0.811h21.848c-0.648,0-1.228-0.131-1.731-0.396c-0.506-0.266-0.905-0.636-1.19-1.108   c-0.285-0.478-0.456-1.032-0.501-1.655c-0.051-0.634,0.025-1.296,0.235-1.993l6.293-20.529H39.1l-6.302,20.568h-2.787   c-0.647,0-1.22-0.137-1.71-0.405c-0.492-0.264-0.89-0.629-1.191-1.091c-0.296-0.459-0.47-1.002-0.521-1.637   c-0.052-0.631,0.025-1.293,0.233-1.992l4.743-15.443h-9.522l-4.751,15.42C16.879,129.68,16.73,131.012,16.851,132.256"/>
</g>
<g>
	<g>
		<g>
			<polygon style="fill: rgb(235, 230, 98);" points="80.092,15.011 80.09,15.011 49.232,15.011 42.096,28.543 67.48,28.543 52.085,51.227 55.658,67.99 48.532,67.99 56.06,86.158 95.124,86.158 90.846,75.841 63.889,75.841 58.307,48.658"/>
			<polygon style="fill: rgb(235, 230, 98);" points="137.062,0.258 89.644,0.258 80.092,15.011 88.3,15.011 75.594,39.063 90.845,75.841 111.308,75.841 105.725,51.429"/>
			<polygon style="fill: rgb(0, 139, 203);" points="42.096,28.543 32.833,28.543 17.577,51.29 21.009,67.99 48.53,67.99 36.548,39.063"/>
		</g>
		<polygon style="fill: rgb(0, 166, 139);" points="67.481,28.543 42.097,28.543 36.547,39.063 48.532,67.99 55.658,67.99 52.085,51.227"/>
	</g>
	<g>
		<polygon style="fill: rgb(202, 212, 0);" points="88.3,15.011 80.092,15.011 58.309,48.658 63.889,75.841 90.845,75.841 75.594,39.063"/>
	</g>
</g>
</svg>
